<svg width="271" height="41" viewBox="0 0 271 41" fill="none" xmlns="http://www.w3.org/2000/svg">
    <g clip-path="url(#clip0_53_123)">
        <path d="M15.9568 0.0585938L0.0534058 15.6455L11.854 30.8164L19.779 30.6824L27.7574 23.5328L23.815 19.0928L17.467 24.7803L14.7006 24.8339L7.99174 16.182L18.349 6.01433H29.9358L40.4801 19.9244V10.119L32.8492 0.0585938H15.9568Z" fill="#BEF264"/>
        <path d="M20.8348 9.43463L12.8563 16.5977L16.7988 21.0108L23.1468 15.3367L25.8998 15.2965L32.6221 23.9484L22.2381 34.1026H10.678L0 20.0449V29.8505L7.75124 40.0584H24.657L40.4802 24.5252V24.4045L28.7598 9.28711L20.8348 9.43463Z" fill="#BEF264"/>
        <path d="M64.4771 29.0378C63.1754 29.0378 62.009 28.8245 60.9778 28.3978C59.9466 27.9712 59.1183 27.3397 58.4929 26.5034C57.8843 25.6672 57.5631 24.6602 57.5293 23.4826H62.1442C62.2118 24.1482 62.4401 24.6602 62.8289 25.0186C63.2176 25.36 63.7248 25.5306 64.3503 25.5306C64.9926 25.5306 65.4997 25.3856 65.8717 25.0954C66.2436 24.7882 66.4295 24.3701 66.4295 23.841C66.4295 23.3973 66.2774 23.0304 65.9731 22.7402C65.6857 22.4501 65.3222 22.2112 64.8828 22.0234C64.4601 21.8357 63.8515 21.6224 63.0571 21.3834C61.9076 21.025 60.9694 20.6666 60.2425 20.3082C59.5155 19.9498 58.8901 19.4208 58.3661 18.721C57.842 18.0213 57.58 17.1082 57.58 15.9818C57.58 14.3093 58.1801 13.0037 59.3804 12.065C60.5805 11.1093 62.1442 10.6314 64.0714 10.6314C66.0322 10.6314 67.6128 11.1093 68.8131 12.065C70.0132 13.0037 70.6556 14.3178 70.7402 16.0074H66.0492C66.0154 15.4272 65.804 14.9749 65.4153 14.6506C65.0264 14.3093 64.5278 14.1386 63.9192 14.1386C63.3951 14.1386 62.9725 14.2837 62.6514 14.5738C62.3301 14.8469 62.1696 15.248 62.1696 15.777C62.1696 16.3573 62.4401 16.8096 62.981 17.1338C63.5219 17.4581 64.3672 17.808 65.5167 18.1834C66.6661 18.576 67.5959 18.9514 68.3059 19.3098C69.0328 19.6682 69.6582 20.1888 70.1823 20.8714C70.7063 21.5541 70.9684 22.433 70.9684 23.5082C70.9684 24.5322 70.7063 25.4624 70.1823 26.2986C69.6752 27.1349 68.9314 27.8005 67.9509 28.2954C66.9704 28.7904 65.8125 29.0378 64.4771 29.0378ZM72.7747 21.7162C72.7747 20.2314 73.0705 18.9344 73.6621 17.825C74.2707 16.7157 75.1075 15.8624 76.1725 15.265C77.2543 14.6677 78.4883 14.369 79.8745 14.369C81.6494 14.369 83.1288 14.8384 84.3119 15.777C85.5124 16.7157 86.2984 18.0384 86.6701 19.745H82.0551C81.6661 18.6528 80.9141 18.1066 79.7984 18.1066C79.0039 18.1066 78.37 18.4224 77.8967 19.0538C77.4233 19.6682 77.1867 20.5557 77.1867 21.7162C77.1867 22.8768 77.4233 23.7728 77.8967 24.4042C78.37 25.0186 79.0039 25.3258 79.7984 25.3258C80.9141 25.3258 81.6661 24.7797 82.0551 23.6874H86.6701C86.2984 25.36 85.5124 26.6741 84.3119 27.6298C83.1114 28.5856 81.6328 29.0634 79.8745 29.0634C78.4883 29.0634 77.2543 28.7648 76.1725 28.1674C75.1075 27.5701 74.2707 26.7168 73.6621 25.6074C73.0705 24.4981 72.7747 23.201 72.7747 21.7162ZM102.327 21.4858C102.327 21.8954 102.302 22.3221 102.251 22.7658H92.4379C92.5053 23.6533 92.7842 24.336 93.2747 24.8138C93.7818 25.2746 94.3991 25.505 95.1257 25.505C96.2074 25.505 96.9601 25.0442 97.3825 24.1226H101.997C101.76 25.0613 101.329 25.9061 100.704 26.657C100.096 27.408 99.3262 27.9968 98.3968 28.4234C97.4673 28.8501 96.4277 29.0634 95.2779 29.0634C93.892 29.0634 92.6574 28.7648 91.5758 28.1674C90.4942 27.5701 89.6487 26.7168 89.0401 25.6074C88.4316 24.4981 88.1273 23.201 88.1273 21.7162C88.1273 20.2314 88.4229 18.9344 89.0148 17.825C89.6233 16.7157 90.4688 15.8624 91.5504 15.265C92.6321 14.6677 93.8745 14.369 95.2779 14.369C96.6471 14.369 97.8643 14.6592 98.9293 15.2394C99.9942 15.8197 100.822 16.6474 101.414 17.7226C102.023 18.7978 102.327 20.0522 102.327 21.4858ZM97.8896 20.3338C97.8896 19.5829 97.6361 18.9856 97.1289 18.5418C96.6218 18.0981 95.9879 17.8762 95.2272 17.8762C94.5005 17.8762 93.8833 18.0896 93.3761 18.5162C92.8856 18.9429 92.5814 19.5488 92.4633 20.3338H97.8896ZM113.236 14.4202C114.892 14.4202 116.211 14.9664 117.192 16.0586C118.188 17.1338 118.688 18.6186 118.688 20.513V28.8586H114.377V21.1018C114.377 20.1461 114.131 19.4037 113.642 18.8746C113.151 18.3456 112.492 18.081 111.664 18.081C110.835 18.081 110.176 18.3456 109.686 18.8746C109.196 19.4037 108.951 20.1461 108.951 21.1018V28.8586H104.615V14.5738H108.951V16.4682C109.39 15.8368 109.982 15.3418 110.726 14.9834C111.469 14.608 112.306 14.4202 113.236 14.4202ZM135.038 21.4858C135.038 21.8954 135.013 22.3221 134.962 22.7658H125.149C125.217 23.6533 125.496 24.336 125.986 24.8138C126.493 25.2746 127.11 25.505 127.837 25.505C128.919 25.505 129.671 25.0442 130.093 24.1226H134.708C134.472 25.0613 134.041 25.9061 133.415 26.657C132.807 27.408 132.038 27.9968 131.108 28.4234C130.178 28.8501 129.139 29.0634 127.989 29.0634C126.603 29.0634 125.369 28.7648 124.287 28.1674C123.205 27.5701 122.36 26.7168 121.751 25.6074C121.143 24.4981 120.838 23.201 120.838 21.7162C120.838 20.2314 121.135 18.9344 121.726 17.825C122.334 16.7157 123.18 15.8624 124.261 15.265C125.344 14.6677 126.586 14.369 127.989 14.369C129.358 14.369 130.575 14.6592 131.64 15.2394C132.705 15.8197 133.534 16.6474 134.125 17.7226C134.734 18.7978 135.038 20.0522 135.038 21.4858ZM130.601 20.3338C130.601 19.5829 130.347 18.9856 129.84 18.5418C129.333 18.0981 128.699 17.8762 127.938 17.8762C127.212 17.8762 126.594 18.0896 126.087 18.5162C125.597 18.9429 125.293 19.5488 125.174 20.3338H130.601ZM143.766 29.0378C142.464 29.0378 141.298 28.8245 140.267 28.3978C139.236 27.9712 138.407 27.3397 137.782 26.5034C137.174 25.6672 136.853 24.6602 136.819 23.4826H141.433C141.501 24.1482 141.729 24.6602 142.118 25.0186C142.507 25.36 143.014 25.5306 143.64 25.5306C144.282 25.5306 144.789 25.3856 145.161 25.0954C145.533 24.7882 145.719 24.3701 145.719 23.841C145.719 23.3973 145.567 23.0304 145.262 22.7402C144.975 22.4501 144.612 22.2112 144.172 22.0234C143.75 21.8357 143.141 21.6224 142.346 21.3834C141.197 21.025 140.258 20.6666 139.532 20.3082C138.805 19.9498 138.179 19.4208 137.655 18.721C137.132 18.0213 136.869 17.1082 136.869 15.9818C136.869 14.3093 137.469 13.0037 138.67 12.065C139.87 11.1093 141.433 10.6314 143.361 10.6314C145.322 10.6314 146.902 11.1093 148.102 12.065C149.303 13.0037 149.945 14.3178 150.029 16.0074H145.338C145.304 15.4272 145.094 14.9749 144.704 14.6506C144.315 14.3093 143.817 14.1386 143.208 14.1386C142.685 14.1386 142.262 14.2837 141.941 14.5738C141.62 14.8469 141.459 15.248 141.459 15.777C141.459 16.3573 141.729 16.8096 142.27 17.1338C142.811 17.4581 143.656 17.808 144.806 18.1834C145.956 18.576 146.885 18.9514 147.595 19.3098C148.322 19.6682 148.948 20.1888 149.472 20.8714C149.995 21.5541 150.258 22.433 150.258 23.5082C150.258 24.5322 149.995 25.4624 149.472 26.2986C148.964 27.1349 148.22 27.8005 147.24 28.2954C146.26 28.7904 145.101 29.0378 143.766 29.0378ZM173.237 14.5738L169.408 28.8586H164.616L162.384 19.5914L160.077 28.8586H155.31L151.456 14.5738H155.792L157.795 24.7882L160.178 14.5738H164.768L167.177 24.737L169.155 14.5738H173.237ZM177.071 13.089C176.31 13.089 175.685 12.8672 175.194 12.4234C174.721 11.9626 174.484 11.3994 174.484 10.7338C174.484 10.0512 174.721 9.48799 175.194 9.04423C175.685 8.58343 176.31 8.35303 177.071 8.35303C177.815 8.35303 178.423 8.58343 178.896 9.04423C179.387 9.48799 179.632 10.0512 179.632 10.7338C179.632 11.3994 179.387 11.9626 178.896 12.4234C178.423 12.8672 177.815 13.089 177.071 13.089ZM179.226 14.5738V28.8586H174.89V14.5738H179.226ZM190.255 25.1466V28.8586H188.049C186.477 28.8586 185.251 28.4746 184.372 27.7066C183.492 26.9216 183.053 25.6501 183.053 23.8922V18.209H181.329V14.5738H183.053V11.0922H187.389V14.5738H190.229V18.209H187.389V23.9434C187.389 24.3701 187.491 24.6773 187.694 24.865C187.896 25.0528 188.234 25.1466 188.708 25.1466H190.255ZM191.808 21.7162C191.808 20.2314 192.103 18.9344 192.695 17.825C193.304 16.7157 194.141 15.8624 195.206 15.265C196.287 14.6677 197.521 14.369 198.908 14.369C200.683 14.369 202.161 14.8384 203.345 15.777C204.545 16.7157 205.331 18.0384 205.703 19.745H201.088C200.699 18.6528 199.947 18.1066 198.832 18.1066C198.037 18.1066 197.403 18.4224 196.93 19.0538C196.456 19.6682 196.22 20.5557 196.22 21.7162C196.22 22.8768 196.456 23.7728 196.93 24.4042C197.403 25.0186 198.037 25.3258 198.832 25.3258C199.947 25.3258 200.699 24.7797 201.088 23.6874H205.703C205.331 25.36 204.545 26.6741 203.345 27.6298C202.145 28.5856 200.665 29.0634 198.908 29.0634C197.521 29.0634 196.287 28.7648 195.206 28.1674C194.141 27.5701 193.304 26.7168 192.695 25.6074C192.103 24.4981 191.808 23.201 191.808 21.7162ZM216.72 14.4202C218.343 14.4202 219.644 14.9664 220.625 16.0586C221.605 17.1338 222.096 18.6186 222.096 20.513V28.8586H217.785V21.1018C217.785 20.1461 217.539 19.4037 217.05 18.8746C216.559 18.3456 215.9 18.081 215.072 18.081C214.243 18.081 213.584 18.3456 213.094 18.8746C212.603 19.4037 212.359 20.1461 212.359 21.1018V28.8586H208.023V9.91463H212.359V16.4938C212.798 15.8624 213.398 15.3589 214.159 14.9834C214.92 14.608 215.773 14.4202 216.72 14.4202ZM238.446 21.4858C238.446 21.8954 238.421 22.3221 238.37 22.7658H228.557C228.625 23.6533 228.904 24.336 229.394 24.8138C229.901 25.2746 230.518 25.505 231.245 25.505C232.327 25.505 233.079 25.0442 233.501 24.1226H238.116C237.88 25.0613 237.449 25.9061 236.823 26.657C236.215 27.408 235.446 27.9968 234.516 28.4234C233.586 28.8501 232.547 29.0634 231.397 29.0634C230.011 29.0634 228.777 28.7648 227.695 28.1674C226.613 27.5701 225.768 26.7168 225.159 25.6074C224.55 24.4981 224.246 23.201 224.246 21.7162C224.246 20.2314 224.543 18.9344 225.134 17.825C225.742 16.7157 226.588 15.8624 227.669 15.265C228.752 14.6677 229.994 14.369 231.397 14.369C232.766 14.369 233.983 14.6592 235.048 15.2394C236.113 15.8197 236.942 16.6474 237.533 17.7226C238.142 18.7978 238.446 20.0522 238.446 21.4858ZM234.008 20.3338C234.008 19.5829 233.755 18.9856 233.248 18.5418C232.741 18.0981 232.107 17.8762 231.346 17.8762C230.619 17.8762 230.002 18.0896 229.495 18.5162C229.005 18.9429 228.701 19.5488 228.582 20.3338H234.008ZM245.07 16.9546C245.577 16.1696 246.211 15.5552 246.971 15.1114C247.732 14.6506 248.578 14.4202 249.507 14.4202V19.0538H248.315C247.234 19.0538 246.422 19.2928 245.881 19.7706C245.34 20.2314 245.07 21.0506 245.07 22.2282V28.8586H240.734V14.5738H245.07V16.9546ZM252.708 29.0122C252.138 29.0122 251.669 28.8458 251.301 28.513C250.946 28.1674 250.768 27.745 250.768 27.2458C250.768 26.7338 250.946 26.305 251.301 25.9594C251.669 25.6138 252.138 25.441 252.708 25.441C253.266 25.441 253.723 25.6138 254.078 25.9594C254.445 26.305 254.629 26.7338 254.629 27.2458C254.629 27.745 254.445 28.1674 254.078 28.513C253.723 28.8458 253.266 29.0122 252.708 29.0122ZM257.72 19.0026C257.245 19.0026 256.854 18.864 256.547 18.5866C256.252 18.2986 256.104 17.9466 256.104 17.5306C256.104 17.104 256.252 16.752 256.547 16.4746C256.854 16.1866 257.245 16.0426 257.72 16.0426C258.185 16.0426 258.566 16.1866 258.861 16.4746C259.168 16.752 259.321 17.104 259.321 17.5306C259.321 17.9466 259.168 18.2986 258.861 18.5866C258.566 18.864 258.185 19.0026 257.72 19.0026ZM259.067 19.9306V28.8586H256.357V19.9306H259.067ZM265.056 28.9866C264.19 28.9866 263.408 28.8 262.711 28.4266C262.025 28.0533 261.48 27.52 261.078 26.8266C260.688 26.1333 260.492 25.3226 260.492 24.3946C260.492 23.4773 260.693 22.672 261.094 21.9786C261.496 21.2746 262.045 20.736 262.742 20.3626C263.44 19.9893 264.222 19.8026 265.088 19.8026C265.955 19.8026 266.736 19.9893 267.433 20.3626C268.131 20.736 268.681 21.2746 269.082 21.9786C269.483 22.672 269.684 23.4773 269.684 24.3946C269.684 25.312 269.478 26.1226 269.066 26.8266C268.665 27.52 268.11 28.0533 267.402 28.4266C266.704 28.8 265.923 28.9866 265.056 28.9866ZM265.056 26.6186C265.574 26.6186 266.013 26.4266 266.372 26.0426C266.742 25.6586 266.926 25.1093 266.926 24.3946C266.926 23.68 266.747 23.1306 266.387 22.7466C266.039 22.3626 265.606 22.1706 265.088 22.1706C264.56 22.1706 264.121 22.3626 263.773 22.7466C263.424 23.12 263.25 23.6693 263.25 24.3946C263.25 25.1093 263.419 25.6586 263.757 26.0426C264.105 26.4266 264.539 26.6186 265.056 26.6186Z" fill="white"/>
    </g>
    <defs>
        <clipPath id="clip0_53_123">
            <rect width="271" height="40" fill="white" transform="translate(0 0.0585938)"/>
        </clipPath>
    </defs>
</svg>
